<?xml version="1.0" standalone="no"?>
<!DOCTYPE svg PUBLIC "-//W3C//DTD SVG 20010904//EN"
 "http://www.w3.org/TR/2001/REC-SVG-20010904/DTD/svg10.dtd">
<svg version="1.0" xmlns="http://www.w3.org/2000/svg"
 width="360.000000pt" height="360.000000pt" viewBox="0 0 360.000000 360.000000"
 preserveAspectRatio="xMidYMid meet">

<g transform="translate(0.000000,360.000000) scale(0.100000,-0.100000)"
fill="#000000" stroke="none">
<path d="M260 2958 c-33 -17 -51 -35 -68 -68 l-22 -45 2 -1055 c3 -1005 4
-1056 21 -1085 11 -17 35 -42 55 -55 l36 -25 393 -3 393 -3 0 56 0 55 -285 0
-285 0 0 115 0 115 286 0 285 0 -3 53 -3 52 -275 3 c-297 3 -336 -1 -369 -45
-19 -23 -21 -40 -21 -159 l0 -134 -43 0 c-84 0 -77 -94 -77 1072 0 990 1 1036
18 1051 17 15 59 17 395 17 l377 0 0 55 0 55 -383 0 c-377 0 -383 0 -427 -22z"/>
<path d="M1285 2966 c-41 -19 -83 -66 -95 -107 -6 -21 -10 -321 -10 -779 1
-787 1 -792 47 -842 47 -52 52 -53 441 -56 l362 -3 0 -115 0 -114 -58 0 c-49
0 -66 -5 -99 -29 -56 -40 -73 -89 -73 -206 l0 -95 506 0 506 0 -4 114 c-2 97
-6 119 -24 143 -37 50 -81 73 -140 73 l-54 0 0 114 0 115 364 3 364 3 39 31
c78 62 73 7 73 864 l0 766 -22 44 c-16 31 -36 51 -67 67 l-44 23 -991 0 c-806
-1 -997 -3 -1021 -14z m2017 -113 c17 -15 18 -52 18 -770 0 -740 0 -753 -20
-773 -20 -20 -33 -20 -995 -20 -962 0 -975 0 -995 20 -20 20 -20 33 -20 770 0
737 0 750 20 770 20 20 33 20 997 20 895 0 978 -1 995 -17z m-822 -1788 l0
-115 -170 0 -170 0 0 118 0 117 170 -3 170 -3 0 -114z m198 -231 c17 -12 22
-25 22 -60 l0 -44 -395 0 -395 0 0 38 c0 81 1 81 400 82 297 0 349 -2 368 -16z"/>
<path d="M1454 2732 c-12 -9 -27 -27 -33 -39 -8 -15 -11 -199 -11 -618 l0
-597 34 -34 34 -34 822 0 c585 0 828 3 843 11 12 6 30 21 39 33 16 19 18 68
18 629 l0 609 -29 29 -29 29 -834 0 c-774 0 -835 -2 -854 -18z m1644 -649 l2
-563 -790 0 -790 0 0 565 0 565 788 -2 787 -3 3 -562z"/>
<path d="M455 2628 c-51 -27 -55 -43 -55 -211 l0 -159 29 -29 29 -29 306 0
306 0 0 220 0 220 -297 0 c-197 -1 -305 -4 -318 -12z m503 -210 l-3 -113 -225
0 -225 0 -3 113 -3 112 231 0 231 0 -3 -112z"/>
<path d="M400 2025 l0 -55 135 0 135 0 0 55 0 55 -135 0 -135 0 0 -55z"/>
<path d="M790 2025 l0 -55 140 0 140 0 0 55 0 55 -140 0 -140 0 0 -55z"/>
<path d="M400 1801 l0 -50 135 -3 135 -3 0 53 0 52 -135 0 -135 0 0 -49z"/>
<path d="M790 1798 l0 -53 140 3 140 3 0 50 0 49 -140 0 -140 0 0 -52z"/>
<path d="M395 1575 l0 -55 338 0 337 0 0 55 0 55 -337 0 -338 0 0 -55z"/>
</g>
</svg>
